{"title":"The Thief of Bagdad(1940)MPEG-4[DaScubaDude]","uid":15274871,"size":1047442346,"categoryP":"video","categoryS":"movies","magnet":"?xt=urn:btih:75f0709121c4331cc50f38b8b2c5dba0474f96a7&amp;dn=The+Thief+of+Bagdad%281940%29MPEG-4%5BDaScubaDude%5D&amp;tr=udp%3A%2F%2Ftracker.leechers-paradise.org%3A6969&amp;tr=udp%3A%2F%2Fzer0day.ch%3A1337&amp;tr=udp%3A%2F%2Fopen.demonii.com%3A1337&amp;tr=udp%3A%2F%2Ftracker.coppersurfer.tk%3A6969&amp;tr=udp%3A%2F%2Fexodus.desync.com%3A6969","seeders":5,"leechers":2,"uploader":"dascuba","files":1,"time":1468291997,"description":"The Thief of Bagdad (1940)\r\nNot Rated | 1h 46min | Adventure, Family, Fantasy | 25 December 1940 (USA)\r\nAfter being tricked and cast out of Bagdad by the evil Jaffar, King Ahmad joins forces with a thief named Abu to reclaim his throne, the city, and the Princess he loves.\r\nDirectors: Ludwig Berger, Michael Powell | \r\nWriters: Miles Malleson (screen play and dialogue), Lajos Biró (scenario by) (as Lajos Biro) | \r\nStars: Conrad Veidt, Sabu, June Duprez |\r\n\r\n General\r\nComplete name                            : ThiefofBagdadThief_Of_Bagdad_Disc1_Title1.mp4\r\nFormat                                   : MPEG-4\r\nFormat profile                           : Base Media\r\nCodec ID                                 : isom (isom/iso2/avc1/mp41)\r\nFile size                                : 999 MiB\r\nDuration                                 : 1h 46mn\r\nOverall bit rate                         : 1 312 Kbps\r\nMovie name                               : Thief_Of_Bagdad_Disc1\r\nGenre                                    : Fantasy\r\nWriting application                      : Lavf54.6.100\r\n\r\nVideo\r\nID                                       : 1\r\nFormat                                   : AVC\r\nFormat/Info                              : Advanced Video Codec\r\nFormat profile                           :   \r\nFormat settings, CABAC                   : No\r\nFormat settings, ReFrames                : 6 frames\r\nCodec ID                                 : avc1\r\nCodec ID/Info                            : Advanced Video Coding\r\nDuration                                 : 1h 46mn\r\nBit rate                                 : 1 206 Kbps\r\nWidth                                    : 720 pixels\r\nHeight                                   : 540 pixels\r\nDisplay aspect ratio                     : 4:3\r\nFrame rate mode                          : Constant\r\nFrame rate                               : 29.970 (30000/1001) fps\r\nColor space                              : YUV\r\nChroma subsampling                       : 4:2:0\r\nBit depth                                : 8 bits\r\nScan type                                : Progressive\r\nBits/(Pixel*Frame)                       : 0.103\r\nStream size                              : 918 MiB (92%)\r\n\r\nAudio\r\nID                                       : 2\r\nFormat                                   : AAC\r\nFormat/Info                              : Advanced Audio Codec\r\nFormat profile                           : LC\r\nCodec ID                                 : 40\r\nDuration                                 : 1h 46mn\r\nBit rate mode                            : Constant\r\nBit rate                                 : 99.2 Kbps\r\nChannel(s)                               : 2 channels\r\nChannel(s)_Original                      : 1 channel\r\nChannel positions                        : Front: C\r\nSampling rate                            : 44.1 KHz\r\nFrame rate                               : 43.066 fps (1024 spf)\r\nCompression mode                         : Lossy\r\nStream size                              : 75.6 MiB (8%)\r\nDefault                                  : Yes\r\nAlternate group                          : 1","torrent":{"xt":"urn:btih:75f0709121c4331cc50f38b8b2c5dba0474f96a7","amp;dn":"The+Thief+of+Bagdad%281940%29MPEG-4%5BDaScubaDude%5D","amp;tr":["udp%3A%2F%2Ftracker.leechers-paradise.org%3A6969","udp%3A%2F%2Fzer0day.ch%3A1337","udp%3A%2F%2Fopen.demonii.com%3A1337","udp%3A%2F%2Ftracker.coppersurfer.tk%3A6969","udp%3A%2F%2Fexodus.desync.com%3A6969"],"infoHash":"75f0709121c4331cc50f38b8b2c5dba0474f96a7","infoHashBuffer":{"type":"Buffer","data":[117,240,112,145,33,196,51,28,197,15,56,184,178,197,219,160,71,79,150,167]},"announce":[],"urlList":[]}}